<svg xmlns="http://www.w3.org/2000/svg" viewBox="0 0 300 300">
  <style>
    path { fill: #111828; }
    @media (prefers-color-scheme: dark) {
      path { fill: #ffffff; }
    }
  </style>
  <path d="M177.273 177.273C192.335 162.21 192.335 137.79 177.273 122.727C162.21 107.665 137.789 107.665 122.727 122.727C107.665 137.79 107.665 162.21 122.727 177.273C137.789 192.335 162.21 192.335 177.273 177.273Z"/>
  <path d="M190.91 190.91C160.784 221.034 160.784 269.874 190.91 300L300 190.91C269.874 160.784 221.033 160.784 190.91 190.91Z"/>
  <path d="M109.091 109.091C139.215 78.9662 139.215 30.1246 109.091 0L0 109.091C30.1246 139.216 78.9662 139.216 109.091 109.091Z"/>
  <path d="M190.91 109.091C221.033 139.215 269.874 139.215 300 109.091L190.91 0C160.784 30.1246 160.784 78.9662 190.91 109.091Z"/>
  <path d="M109.091 190.91C78.9662 160.784 30.1246 160.784 0 190.91L109.091 300C139.216 269.874 139.216 221.034 109.091 190.91Z"/>
</svg>
